<svg xmlns="http://www.w3.org/2000/svg" width="175.607" height="49.276" viewBox="0 0 175.607 49.276">
  <g id="logo-uz" transform="translate(-0.152 -0.1)">
    <g id="Group_2" data-name="Group 2" transform="translate(0.152 0.1)">
      <g id="Group_1" data-name="Group 1">
        <path id="Path_7718" data-name="Path 7718" d="M23.295,24.86a.872.872,0,0,1,.854.854.686.686,0,0,1-.427.671V28.4l-1.4,1.525v2.805a.488.488,0,1,1-.976,0V29.739h0v-.122h0l.061-.061h0l1.281-1.281V26.568a.924.924,0,0,1-.427-.671c.183-.671.61-1.037,1.037-1.037ZM18.66.1a17.356,17.356,0,0,0-5.733,3.293A16.1,16.1,0,0,0,8.78,9.126a15.721,15.721,0,0,0-1.159,4.33,11.773,11.773,0,0,0,4.33,10.368c.488.427.915.793,1.342,1.22a2.68,2.68,0,0,1,.732,1.1.06.06,0,0,0,.061.061,2.747,2.747,0,0,1-.549.61,1.149,1.149,0,0,0-.122-.488,2.188,2.188,0,0,0-.61-.854,12.2,12.2,0,0,0-1.342-1.159A12.479,12.479,0,0,1,6.89,13.334,18.88,18.88,0,0,1,8.048,8.821,15.97,15.97,0,0,1,14.94,1.259c-4.33,1.4-11.1,5.733-12.258,11.77-.061-.122-.244-.427-.366-.61-1.708,3.781-2.5,9.758-.61,12.807-.3-.122-.549-.244-.61-.427.488,2.256,1.281,6.221,4.635,6.16a5.712,5.712,0,0,1-2.256.061c.793,1.464,2.134,3.476,4.086,3.354a3.285,3.285,0,0,1-1.281.488c.61.671,1.769,2.074,3.659,1.83a1.855,1.855,0,0,1-1.159.427,14.573,14.573,0,0,0,2.805,1.769c.122.3.3.61.427.915a19.017,19.017,0,0,1-4.391-2.927.9.9,0,0,0,.427-.061A6.885,6.885,0,0,1,5.243,34.5a.9.9,0,0,0,.427-.061c-1.525-.732-2.561-2.805-3.232-4.086a1.034,1.034,0,0,0,.61,0C1.279,28.641.669,25.9.3,23.64c.122.061.183.122.244.122A19.055,19.055,0,0,1,2.316,11.2a.476.476,0,0,0,.244.244C4.816,4.979,11.646.649,18.66.1Zm9.026,45.983a1.663,1.663,0,0,0-.793.915,4.336,4.336,0,0,1-1.708.61,5.351,5.351,0,0,0,2.2-.122,3.388,3.388,0,0,1,.3-1.4Zm1.708-2.074v.671a2.587,2.587,0,0,1-1.1.427,3.4,3.4,0,0,0,2.074-.244,1.86,1.86,0,0,1-.976-.854Zm-1.525,1.708a3.977,3.977,0,0,0,3.781-.61,6.774,6.774,0,0,1-2.622-2.622L29.576,42a5.888,5.888,0,0,0,3.232,2.927,4.661,4.661,0,0,1-3.72,1.708,1.841,1.841,0,0,0-.183,2.134c-2.378.3-3.781.671-5.367-.61l.122-.732a3.773,3.773,0,0,0,1.708.854,5.877,5.877,0,0,0,1.464,0,7.472,7.472,0,0,1,1.159-.122,2.259,2.259,0,0,1,.488-1.769c-.244-.3-.488-.427-.61-.671Zm-12.99.366a1.663,1.663,0,0,1,.793.915,4.336,4.336,0,0,0,1.708.61,5.351,5.351,0,0,1-2.2-.122,3.388,3.388,0,0,0-.3-1.4ZM13.171,44.01v.671a2.587,2.587,0,0,0,1.1.427,3.4,3.4,0,0,1-2.074-.244,1.86,1.86,0,0,0,.976-.854ZM14.7,45.717a3.977,3.977,0,0,1-3.781-.61,6.774,6.774,0,0,0,2.622-2.622L12.988,42a5.888,5.888,0,0,1-3.232,2.927,4.661,4.661,0,0,0,3.72,1.708,1.841,1.841,0,0,1,.183,2.134c2.378.3,3.781.671,5.367-.61l-.122-.732a3.773,3.773,0,0,1-1.708.854,5.877,5.877,0,0,1-1.464,0,7.472,7.472,0,0,0-1.159-.122,2.259,2.259,0,0,0-.488-1.769,2.866,2.866,0,0,0,.61-.671ZM28.478,26.2a2.747,2.747,0,0,0,.549.61,1.149,1.149,0,0,1,.122-.488,2.188,2.188,0,0,1,.61-.854A12.2,12.2,0,0,1,31.1,24.311a12.479,12.479,0,0,0,4.574-10.977,18.88,18.88,0,0,0-1.159-4.513,15.435,15.435,0,0,0-6.891-7.562c4.33,1.4,11.16,5.672,12.319,11.709.061-.122.244-.427.366-.61,1.708,3.781,2.439,9.819.61,12.807.3-.122.549-.244.61-.427-.488,2.256-1.281,6.221-4.635,6.16a5.712,5.712,0,0,0,2.256.061c-.793,1.464-2.134,3.476-4.086,3.354a3.285,3.285,0,0,0,1.281.488c-.61.671-1.769,2.074-3.659,1.83a1.855,1.855,0,0,0,1.159.427,14.573,14.573,0,0,1-2.805,1.769c-.122.3-.3.61-.427.915A19.017,19.017,0,0,0,35,36.813a.9.9,0,0,1-.427-.061,6.885,6.885,0,0,0,2.805-2.317.9.9,0,0,1-.427-.061c1.525-.732,2.561-2.805,3.232-4.086a1.034,1.034,0,0,1-.61,0c1.769-1.708,2.378-4.452,2.744-6.708-.122.061-.183.122-.244.122A19.055,19.055,0,0,0,40.31,11.138a.476.476,0,0,1-.244.244C37.809,4.979,30.979.649,23.9.1a17.356,17.356,0,0,1,5.733,3.293,16.1,16.1,0,0,1,4.147,5.733,15.721,15.721,0,0,1,1.159,4.33,11.773,11.773,0,0,1-4.33,10.368c-.488.427-.915.793-1.342,1.22a5.527,5.527,0,0,0-.793,1.159ZM20.55,21.384a1.2,1.2,0,0,1-.61-1.708,1.054,1.054,0,0,0,.61,1.1,1.042,1.042,0,0,0,.427-1.22c.3.793.183,1.586-.427,1.83Zm5-3.232a2.155,2.155,0,0,0-1.037-.244c-.183,0-.366-.122-.3-.488-.366.793-.488,1.281-1.525,1.037-.61-.122-.854.366-.732.854.061.3.183.732-.122,1.037a1.419,1.419,0,0,0-.671-.854,1.231,1.231,0,0,1,.183,1.464c1.22-.244,1.22.732,1.037,1.22.3,0,.61.061.793.061a12.39,12.39,0,0,1-.61-2.988c0-.183,0-.244.122-.183a1.657,1.657,0,0,0,1.769-.61,2.658,2.658,0,0,1,1.769.549c.122-1.1.183-2.134-1.159-2.561a1.134,1.134,0,0,0-1.342-.793c-.854-1.342-3.964.061-5.184-.793a1.716,1.716,0,0,1-.61-1.281,2.766,2.766,0,0,0-.915,1.281,2.676,2.676,0,0,0,.427,2.5,2.375,2.375,0,0,0,1.4.915c-.061.061-.122.122-.122.183-.671,1.1-.61,2.744-.61,4.025.183-.061.427-.061.61-.122a.939.939,0,0,1,.854-1.342,1.337,1.337,0,0,1,.183-1.464,1.1,1.1,0,0,0-.671.854.968.968,0,0,1-.122-.976,2.973,2.973,0,0,1,.183-.427v-.061c.61-1.159,2.683-.427,3.232-2.2a2.479,2.479,0,0,1-.61.549c-.366.183-.61-.549-1.1-.549a.707.707,0,0,1,.244.61c-.061.244-.183.3-.366.122s-.3-.549-.61-.61a.582.582,0,0,1,.122.61c-.061.244-.244.366-.427.122-.122-.122-.183-.366-.366-.488a.407.407,0,0,1-.61.427,2.142,2.142,0,0,1-1.1-1.1,2.036,2.036,0,0,1,.061-1.586V14.8c1.1,2.013,5.062.061,5.55,1.342l.061.244h.244c.427-.061.854-.061.915.488v.244l.183.061a.9.9,0,0,1,.976.976ZM19.27,22.3a1.74,1.74,0,0,1,.427-.488c-.061.183-.122.3-.183.488Zm2.439-.061a1.858,1.858,0,0,0-.427-.61,1.11,1.11,0,0,1,.793.61Zm-1.83,0c0-.122.061-.244.061-.366a.457.457,0,0,0,.061.3l-.122.061Zm1.22,0c0-.122-.061-.3-.061-.488a1.826,1.826,0,0,1,.244.488ZM6.4,15.59c-.122,3.781,1.464,6.952,4.757,10a5.418,5.418,0,0,1,.976,2.317,1.276,1.276,0,0,0,.366-.244c-.061-.366-.061-.61-.122-.854a1.418,1.418,0,0,1,.427.671c.122-.061.183-.183.3-.244,0-.122-.061-.244-.061-.366a1.131,1.131,0,0,0-.122-.427,6.109,6.109,0,0,0-1.769-1.769A12.567,12.567,0,0,1,6.4,15.59Zm.122,5.672C2.56,17.725,3.535,11.5,6.585,8.943a11.866,11.866,0,0,0-.244,4.391,17.761,17.761,0,0,1,1.22-4.7,17.109,17.109,0,0,1,3.232-5C7.8,5.528,4.694,8.455,3.535,11.748c-.915,2.988-.488,7.379,2.988,9.514Zm-4.391-6.4C.425,20.347.974,27.117,6.219,25.653c-3.232.122-4.391-1.891-4.086-6.4A6.547,6.547,0,0,0,6.28,22.787c-2.5-1.769-4.025-3.781-4.147-7.928ZM2.072,26.385c.793,4.086,3.476,4.269,5.062,2.805a2.44,2.44,0,0,1-3.72-1.281A3.615,3.615,0,0,0,6.4,26.995a4.975,4.975,0,0,1-4.33-.61Zm2.561,5.428c1.891,2.927,3.9,1.525,4.391.488a2.007,2.007,0,0,1-2.805.061,3.459,3.459,0,0,0,1.708-1.647,5,5,0,0,1-3.293,1.1Zm5.123,1.22a3.782,3.782,0,0,1-2.378,2.074c.976,1.1,2.561,1.281,3.171.427,0-.183-.061-.3-.061-.488a1.223,1.223,0,0,1-1.708.183,4.23,4.23,0,0,0,.976-2.2ZM11.1,37.545a3.79,3.79,0,0,0-.183-.61,1.246,1.246,0,0,1-.793.488.99.99,0,0,0,.976.122ZM6.829,22.482c-.671,3.72,1.159,3.293,2.256,3.171-1.037-.183-1.891-.61-1.83-1.708a3.442,3.442,0,0,0,1.83.488,5.324,5.324,0,0,1-2.256-1.952ZM6.89,26.2C6.829,29.5,8.841,28.7,9.573,27.97c-.976.366-1.769.183-1.83-.732a2.309,2.309,0,0,0,1.708-.61A2.406,2.406,0,0,1,6.89,26.2ZM7.682,29.5c.915,2.317,1.952,1.708,2.561.854v-.3c-.61.549-1.22.61-1.464.061a2.09,2.09,0,0,0,1.159-1.4,2.324,2.324,0,0,1-2.256.793Zm1.4,2.317a4.468,4.468,0,0,0,1.159,1.22,11.751,11.751,0,0,1-.061-1.464,1.641,1.641,0,0,1-1.1.244Zm.488-6.16c.061,2.439,1.22,1.952,1.83,1.708-.61.061-1.281-.061-1.281-.793a2.226,2.226,0,0,0,1.1,0,3.188,3.188,0,0,1-1.647-.915ZM10,28.031a4.7,4.7,0,0,0,.366.915v-.183l.3-.122c0-.061,0-.061-.061-.122a1.4,1.4,0,0,0,.915-.671c-.854.488-1.342.3-1.525.183ZM5.426,11.87a7.922,7.922,0,0,0,1.037,8.172,8.3,8.3,0,0,1-.976-5.123,6.309,6.309,0,0,1-.061-3.049ZM2.987,22.238c.366,1.647,1.22,2.622,2.805,2.683a3.919,3.919,0,0,1-1.464-1.037,2.587,2.587,0,0,0,1.342-.122,4.948,4.948,0,0,1-2.683-1.525Zm2.2,6.342a1.285,1.285,0,0,0,1.464.183.692.692,0,0,1-.488-.183.659.659,0,0,0,.183-.427,1.711,1.711,0,0,1-1.159.427Zm2.2,3.659a1.17,1.17,0,0,0,1.22-.3.516.516,0,0,1-.427,0,.846.846,0,0,0,0-.549,1.548,1.548,0,0,1-.793.854ZM9.634,34.8a1,1,0,0,0,.732-.427V34.13c-.061,0-.122.061-.183,0a.925.925,0,0,0-.244-.488,1.461,1.461,0,0,1-.3,1.159Zm26.59-19.21c.122,3.781-1.464,6.952-4.757,10a5.418,5.418,0,0,0-.976,2.317,1.276,1.276,0,0,1-.366-.244c.061-.366.061-.61.122-.854a1.418,1.418,0,0,0-.427.671c-.122-.061-.183-.183-.3-.244,0-.122.061-.244.061-.366a1.131,1.131,0,0,1,.122-.427,6.109,6.109,0,0,1,1.769-1.769,13.009,13.009,0,0,0,4.757-9.087Zm-.244,5.672c4.025-3.6,2.988-9.819-.061-12.38a11.866,11.866,0,0,1,.244,4.391,17.761,17.761,0,0,0-1.22-4.7,17.109,17.109,0,0,0-3.232-5c2.988,1.891,6.1,4.818,7.257,8.111,1.037,3.049.549,7.44-2.988,9.575Zm4.452-6.4c1.708,5.489,1.159,12.258-4.086,10.794,3.232.122,4.391-1.891,4.086-6.4a6.547,6.547,0,0,1-4.147,3.537c2.5-1.769,4.025-3.781,4.147-7.928Zm.061,11.526c-.793,4.086-3.476,4.269-5.062,2.805a2.44,2.44,0,0,0,3.72-1.281,3.615,3.615,0,0,1-2.988-.915,4.934,4.934,0,0,0,4.33-.61Zm-2.561,5.428c-1.891,2.927-3.9,1.525-4.391.488a2.007,2.007,0,0,0,2.805.061,3.459,3.459,0,0,1-1.708-1.647,5.224,5.224,0,0,0,3.293,1.1Zm-5.062,1.22a3.685,3.685,0,0,0,2.378,2.013c-.976,1.1-2.561,1.281-3.171.427,0-.183.061-.3.061-.488a1.223,1.223,0,0,0,1.708.183,3.841,3.841,0,0,1-.976-2.134Zm-1.342,4.513a3.79,3.79,0,0,1,.183-.61,1.246,1.246,0,0,0,.793.488c-.488.244-.793.244-.976.122Zm4.208-15.063c.671,3.72-1.159,3.293-2.256,3.171,1.037-.183,1.891-.61,1.83-1.708a2.87,2.87,0,0,1-1.83.488,5.324,5.324,0,0,0,2.256-1.952Zm-.061,3.72c.061,3.293-1.952,2.5-2.683,1.769.976.366,1.769.183,1.83-.732a2.309,2.309,0,0,1-1.708-.61,2.406,2.406,0,0,0,2.561-.427ZM34.882,29.5c-.915,2.317-1.952,1.708-2.561.854v-.3c.61.549,1.22.61,1.464.061a2.09,2.09,0,0,1-1.159-1.4,2.3,2.3,0,0,0,2.256.793Zm-1.4,2.317a4.468,4.468,0,0,1-1.159,1.22,11.751,11.751,0,0,0,.061-1.464,1.641,1.641,0,0,0,1.1.244Zm-.427-6.16c-.061,2.439-1.22,1.952-1.83,1.708.61.061,1.281-.061,1.281-.793a2.226,2.226,0,0,1-1.1,0,3.5,3.5,0,0,0,1.647-.915Zm-.427,2.378a4.7,4.7,0,0,1-.366.915v-.183l-.366-.122c0-.061,0-.061.061-.122a1.4,1.4,0,0,1-.915-.671,1.546,1.546,0,0,0,1.586.183ZM37.077,11.87a7.922,7.922,0,0,1-1.037,8.172,8.3,8.3,0,0,0,.976-5.123,4.668,4.668,0,0,0,.061-3.049Zm2.439,10.368c-.366,1.647-1.22,2.622-2.805,2.683a3.919,3.919,0,0,0,1.464-1.037,2.587,2.587,0,0,1-1.342-.122,4.209,4.209,0,0,0,2.683-1.525ZM37.443,28.58a1.285,1.285,0,0,1-1.464.183.692.692,0,0,0,.488-.183.659.659,0,0,1-.183-.427,1.61,1.61,0,0,0,1.159.427Zm-2.2,3.659a1.17,1.17,0,0,1-1.22-.3.516.516,0,0,0,.427,0,.846.846,0,0,1,0-.549,1.221,1.221,0,0,0,.793.854ZM32.991,34.8a1,1,0,0,1-.732-.427V34.13c.061,0,.122.061.183,0a.925.925,0,0,1,.244-.488,1.126,1.126,0,0,0,.3,1.159ZM21.343,16.017c.793.427,1.4.061,1.83.3.366.183.549.854.061.976,0-.366-.3-.3-.488-.3a.393.393,0,0,1-.366-.366.224.224,0,0,1,.061-.183,1.055,1.055,0,0,1-1.1-.427Zm-3.293-.183a1.313,1.313,0,0,0,.671,1.342,3.438,3.438,0,0,1-.244-.732,4.667,4.667,0,0,0,2.561-.427,4.453,4.453,0,0,1-2.988-.183Zm9.941,20.918a1.881,1.881,0,0,0,1.4.122,2.116,2.116,0,0,0,1.159-.732,1.983,1.983,0,0,0,.488-1.586,2.454,2.454,0,0,0-.549-1.22,3.438,3.438,0,0,0,.244-.732,2.481,2.481,0,0,0-.122-1.342,4.313,4.313,0,0,0-.732-1.1,3.282,3.282,0,0,0-1.22-.61,3.256,3.256,0,0,0-1.342.122,2.507,2.507,0,0,0-.793.488,1.779,1.779,0,0,0-1.22-.244,2.259,2.259,0,0,0-1.464.732,2.428,2.428,0,0,0-.549,1.281,2.2,2.2,0,0,0,.427,1.342.44.44,0,1,0,.732-.488,1.3,1.3,0,0,1-.244-.732,1.01,1.01,0,0,1,.3-.732,1.374,1.374,0,0,1,.854-.488,2.075,2.075,0,0,1,.61.061,6.35,6.35,0,0,0-.3.732.466.466,0,1,0,.915.183,1.194,1.194,0,0,1,.366-.732,2.659,2.659,0,0,1,.671-.549,1.584,1.584,0,0,1,1.586.3,2.659,2.659,0,0,1,.549.671,1.4,1.4,0,0,1,.061.854,1.6,1.6,0,0,1-.366.793,1.73,1.73,0,0,1-.671.488.482.482,0,0,0,.3.915,1.549,1.549,0,0,0,.793-.549.984.984,0,0,1,.183.549,1.061,1.061,0,0,1-.3.915,1.257,1.257,0,0,1-1.464.366.429.429,0,0,0-.61.244c-.061.366.061.61.3.671Zm-.427.915v.671l-1.342.61-.061.122-.183.549c-.061.183-.183.366-.244.549l-.122.122.549,1.342a3.486,3.486,0,0,1-.427.488,3.054,3.054,0,0,1-.488.427L23.9,42l-.122.122c-.183.061-.366.183-.549.244l-.549.183-.244.061-.61,1.342H20.489l-.61-1.342-.244-.061-.549-.183c-.183-.061-.366-.183-.549-.244L18.355,42l-1.342.549a3.486,3.486,0,0,1-.488-.427,3.054,3.054,0,0,1-.427-.488l.549-1.342-.061-.122c-.061-.183-.183-.366-.244-.549l-.183-.549-.061-.244-1.342-.61v-.671a.488.488,0,1,0-.976,0v.549c0,.183.061.366.061.549l.061.244,1.4.61c.061.122.122.3.183.427s.122.3.183.427l-.61,1.4.183.244a3.983,3.983,0,0,0,.671.732c.244.244.549.488.732.671l.183.183,1.464-.61c.122.061.3.122.427.183s.3.122.427.183l.61,1.4L20,44.8c.183,0,.366.061.549.061h1.1c.183,0,.366-.061.549-.061l.244-.061.61-1.4c.122-.061.3-.122.427-.183s.3-.122.427-.183l1.4.61.244-.183a3.983,3.983,0,0,0,.732-.671c.244-.244.488-.549.671-.732l.183-.183-.61-1.464c.061-.122.122-.3.183-.427s.122-.3.183-.427l1.4-.61.061-.244c0-.183.061-.366.061-.549v-.549a.525.525,0,0,0-.488-.488c-.183.244-.366.427-.366.61ZM15,32.971c.732-2.561-1.1-2.378-1.708-3.537.549,1.22-.793,2.5,1.708,3.537Zm11.526.671a7,7,0,0,1-.488.61,1.33,1.33,0,0,1-.244.3c-.183-.122-.3-.183-.488-.3a4.57,4.57,0,0,0-.976-.3.466.466,0,1,0-.183.915,2.582,2.582,0,0,1,.732.244c.122.061.183.122.3.183A18.938,18.938,0,0,1,22.38,37.85a10.388,10.388,0,0,1-1.342.915c-.122-.061-.244-.183-.366-.244-.244-.122-.488-.122-.61.122s-.122.488.122.61a7.018,7.018,0,0,1-1.525.732.464.464,0,1,0,.366.854,19.407,19.407,0,0,0,1.952-.976,6.427,6.427,0,0,1,.671.427,8.191,8.191,0,0,0,1.647.793.464.464,0,0,0,.366-.854c-.549-.244-1.037-.488-1.586-.732a.462.462,0,0,0-.244-.122,9.933,9.933,0,0,1,1.037-.671A24.783,24.783,0,0,0,25.8,35.959c.061.061.122.183.244.244a2.484,2.484,0,0,1,.366.671.571.571,0,0,0,.61.3.5.5,0,0,0,.3-.61,3.888,3.888,0,0,0-.488-.854c-.122-.183-.244-.3-.366-.488.122-.122.183-.244.3-.366a6.481,6.481,0,0,1,.549-.671c.122-.244.122-.488-.122-.61a.435.435,0,0,0-.671.061Zm-6.282,2.074c1.1,1.708-.244,1.83-.366,2.805-.732-1.647.244-1.891.366-2.805Zm-3.9,2.439c1.769,1.647,2.2.122,3.293.183-1.647-1.22-2.2-.122-3.293-.183Zm-1.525-1.708c1.586,2.074,2.317.61,3.476.854-1.525-1.708-2.317-.61-3.476-.854Zm3.293-2.927c-.061,1.037-1.159,1.4-.183,3.171.061-1.037,1.525-1.342.183-3.171ZM17.257,32c-.122,1.1-1.342,1.4-.427,3.354.244-1.1,1.769-1.22.427-3.354Zm-3.6,2.744c1.342,2.256,2.256.793,3.415,1.22-1.4-1.83-2.317-.793-3.415-1.22Zm-.976-1.83c.976,2.439,2.134,1.159,3.171,1.708-1.1-2.013-2.134-1.159-3.171-1.708Zm3.354-2.317c-.061,1.22-1.281,1.647-.122,3.6,0-1.22,1.708-1.464.122-3.6Zm3.293,3.9c-.122,1.037-1.281,1.342-.366,3.171.122-1.1,1.586-1.22.366-3.171Zm.122-2.988v2.256l2.561,2.561a.431.431,0,1,0,.61-.61l-2.256-2.256V29.312l1.464-1.464V26.507a.924.924,0,0,0,.427-.671.872.872,0,0,0-.854-.854.918.918,0,0,0-.854.854.686.686,0,0,0,.427.671v.976l-1.464,1.464v1.342l-1.037-1.037V26.507a.924.924,0,0,0,.427-.671.872.872,0,0,0-.854-.854.918.918,0,0,0-.854.854.686.686,0,0,0,.427.671v3.11l1.83,1.891Zm3.842-6.038a.3.3,0,1,0,.3.3.327.327,0,0,0-.3-.3Zm-1.952,0a.3.3,0,1,0,.3.3.288.288,0,0,0-.3-.3Zm-3.354,0a.3.3,0,1,0,.3.3A.288.288,0,0,0,17.989,25.47Z" transform="translate(-0.152 -0.1)" fill="#164493"/>
        <path id="Path_7719" data-name="Path 7719" d="M27.137,62.914c8.355-4.025,13.051-10.55,11.77-21.345-2.927-.732-4.7-2.5-4.94-5.428a17.488,17.488,0,0,0-6.83-1.342,16.456,16.456,0,0,0-6.83,1.342c-.3,2.927-2.013,4.7-4.94,5.428-1.281,10.794,3.415,17.381,11.77,21.345Zm-5.489-25.8A17.082,17.082,0,0,1,27.2,36.2a17.355,17.355,0,0,1,5.55.915,7,7,0,0,0,4.94,5.489C38.419,51.388,35,57.426,27.259,61.39c-7.806-3.964-11.282-10-10.429-18.723A7.143,7.143,0,0,0,21.648,37.117Z" transform="translate(-6.006 -13.638)" fill="#6caf60"/>
      </g>
    </g>
    <g id="Group_4" data-name="Group 4" transform="translate(47.933 11.626)">
      <g id="Group_3" data-name="Group 3">
        <path id="Path_7720" data-name="Path 7720" d="M80.147,23.635l.793-3.415h.671l-1.22,4.7a1.951,1.951,0,0,1-.3.793c-.122.183-.183.366-.3.427a.557.557,0,0,1-.3.183c-.122,0-.244.061-.366.061h-.3V25.83h.3a.527.527,0,0,0,.366-.183,1.147,1.147,0,0,0,.244-.61l.122-.366L78.5,20.22h.671l.976,3.415ZM79.537,19a.224.224,0,0,0,.061.183c0,.061.061.122.122.183s.122.122.183.122c.061.061.122.061.244.061s.183,0,.244-.061.122-.061.183-.122.122-.122.122-.183.061-.122.061-.183h.549c0,.122-.061.244-.061.366l-.183.366a.778.778,0,0,1-.366.244,1.149,1.149,0,0,1-.488.122,1.218,1.218,0,0,1-.549-.122c-.122-.061-.244-.183-.366-.244-.061-.122-.183-.244-.183-.366A.774.774,0,0,1,79.049,19Zm3.6,1.159a1.88,1.88,0,0,1,.61.061.983.983,0,0,1,.427.244,1.328,1.328,0,0,1,.3.488,2.706,2.706,0,0,1,.122.793v.366c0,.122-.061.244-.061.427l-.183.366c-.061.122-.183.183-.244.244h0a1.33,1.33,0,0,1,.3.244l.183.366a.774.774,0,0,1,.061.366v.427a2.563,2.563,0,0,1-.3,1.342,1.34,1.34,0,0,1-1.1.488,1.688,1.688,0,0,1-.549-.061.983.983,0,0,1-.427-.244,1.094,1.094,0,0,1-.3-.427,1.88,1.88,0,0,1-.061-.61l.671-.122a.981.981,0,0,0,.183.671.745.745,0,0,0,.549.183c.122,0,.183,0,.244-.061s.183-.122.244-.183a.516.516,0,0,0,.122-.366,1.7,1.7,0,0,0,.061-.61,1.038,1.038,0,0,0-.061-.427.867.867,0,0,0-.122-.366.842.842,0,0,0-.183-.244.457.457,0,0,0-.3-.061h-.366v-.61h.427a.457.457,0,0,0,.3-.061c.061-.061.183-.122.183-.244.061-.122.061-.244.122-.366,0-.122.061-.3.061-.427a1.189,1.189,0,0,0-.061-.488c-.061-.122-.061-.244-.183-.3a.317.317,0,0,0-.244-.122,2.641,2.641,0,0,0-.3-.061.594.594,0,0,0-.549.244,1.03,1.03,0,0,0-.183.61l-.671-.122a1.256,1.256,0,0,1,.427-1.037,1.206,1.206,0,0,1,.854-.3Zm2.988,5.489h.488a1.149,1.149,0,0,0,.488-.122.609.609,0,0,0,.3-.244.867.867,0,0,0,.122-.366c0-.122.061-.3.061-.488V24a.867.867,0,0,0-.122-.366.609.609,0,0,0-.3-.244,1.149,1.149,0,0,0-.488-.122h-.549v2.378Zm0-2.988h.488a2.707,2.707,0,0,1,.793.122.948.948,0,0,1,.488.366,2.166,2.166,0,0,1,.244.549,2.734,2.734,0,0,1,.061.732,3.222,3.222,0,0,1-.061.793,1.826,1.826,0,0,1-.244.61.948.948,0,0,1-.488.366,2.389,2.389,0,0,1-.793.122h-1.22v-6.1h2.561v.61h-1.83v1.83Zm2.805,3.659v-6.1h2.622v.61H89.6V22.9h1.647v.671H89.6v2.134h1.952v.61Zm3.232,0v-6.1h.671V22.9h.61c.122,0,.183-.061.3-.122.061-.061.183-.122.244-.244a4.2,4.2,0,0,0,.183-.488l.427-1.769h.61l-.427,1.769a2.035,2.035,0,0,1-.3.732,2.818,2.818,0,0,1-.427.427.973.973,0,0,1,.549.427,2.391,2.391,0,0,1,.3.793l.427,1.952h-.671L94.3,24.55a4.2,4.2,0,0,0-.183-.488.609.609,0,0,0-.244-.3c-.122-.061-.183-.122-.3-.122s-.183-.061-.3-.061h-.427v2.744Zm5.916-4.33-1.525,4.269h-.671V20.22h.671v4.269h.061l1.525-4.33h.671v6.1h-.671l-.061-4.269ZM101,20.159a1.341,1.341,0,0,1,1.037.366,1.409,1.409,0,0,1,.3,1.037l-.671.122a2.192,2.192,0,0,0-.122-.671.594.594,0,0,0-.549-.244.867.867,0,0,0-.366.122c-.061.061-.183.122-.183.244-.061.122-.061.183-.122.3v3.72c0,.122.061.183.122.3.061.061.122.183.183.244s.183.061.366.061c.244,0,.427-.061.488-.183a.981.981,0,0,0,.183-.671l.732.122a1.434,1.434,0,0,1-.366,1.037,1.652,1.652,0,0,1-2.074,0,1.491,1.491,0,0,1-.366-1.1V21.927a1.88,1.88,0,0,1,.061-.61l.183-.549a.82.82,0,0,1,.427-.366c.183-.244.427-.244.732-.244Zm3.354.671v5.489h-.671V20.83h-1.1v-.61h2.744v.61Zm4.147,3.842a2.478,2.478,0,0,1-.3,1.281,1.233,1.233,0,0,1-1.1.427,1.3,1.3,0,0,1-1.1-.427,1.569,1.569,0,0,1-.3-1.1V21.866a1.88,1.88,0,0,1,.061-.61l.183-.549a.82.82,0,0,1,.427-.366,2.256,2.256,0,0,1,1.464,0,.82.82,0,0,1,.427.366.745.745,0,0,1,.183.549,2.287,2.287,0,0,1,.061.671v2.744Zm-.732-2.927v-.3c0-.122-.061-.183-.122-.3-.061-.061-.122-.183-.244-.244a.867.867,0,0,0-.366-.122.881.881,0,0,0-.427.122.335.335,0,0,0-.183.3.773.773,0,0,0-.061.366v3.6c0,.122.061.183.122.3.061.061.122.183.244.244.061.061.183.061.366.061a.773.773,0,0,0,.366-.061.476.476,0,0,0,.244-.244c.061-.061.061-.183.122-.3,0-.122.061-.244.061-.366V21.744Zm3.72,4.574V23.513h-1.4v2.805h-.671v-6.1h.671V22.9h1.4V20.22h.671v6.1Zm4.574-6.1a3.09,3.09,0,0,1,.793.122.948.948,0,0,1,.488.366,2.166,2.166,0,0,1,.244.549,3.221,3.221,0,0,1,.061.793,2.968,2.968,0,0,1-.061.732,1.826,1.826,0,0,1-.244.61.948.948,0,0,1-.488.366,1.554,1.554,0,0,1-.793.122h-.488v2.439h-.671v-6.1Zm-.549,2.988h.488a1.149,1.149,0,0,0,.488-.122.609.609,0,0,0,.3-.244.867.867,0,0,0,.122-.366v-.427a1.343,1.343,0,0,0-.061-.488.654.654,0,0,0-.122-.366.609.609,0,0,0-.3-.244,1.149,1.149,0,0,0-.488-.122h-.488v2.378Zm2.805,3.11v-6.1h2.622v.61h-1.952V22.9h1.647v.671h-1.647v2.134h1.952v.61Zm4.513-6.16a1.341,1.341,0,0,1,1.037.366,1.409,1.409,0,0,1,.3,1.037l-.671.122a2.192,2.192,0,0,0-.122-.671.594.594,0,0,0-.549-.244.867.867,0,0,0-.366.122c-.061.061-.183.122-.183.244-.061.122-.061.183-.122.3v3.72c0,.122.061.183.122.3.061.061.122.183.183.244s.183.061.366.061c.244,0,.427-.061.488-.183a.981.981,0,0,0,.183-.671l.732.122a1.435,1.435,0,0,1-.366,1.037,1.652,1.652,0,0,1-2.073,0,1.491,1.491,0,0,1-.366-1.1V21.927a1.88,1.88,0,0,1,.061-.61l.183-.549a.82.82,0,0,1,.427-.366.838.838,0,0,1,.732-.244Zm4.086,6.16V20.83h-1.342v5.489h-.671v-6.1h2.683v6.1Zm2.805-2.683.793-3.415h.671l-1.22,4.7a1.952,1.952,0,0,1-.3.793c-.122.183-.183.366-.3.427a.557.557,0,0,1-.3.183c-.122,0-.244.061-.366.061h-.3V25.83h.3a.527.527,0,0,0,.366-.183,1.146,1.146,0,0,0,.244-.61l.122-.366-1.342-4.513h.671l.976,3.476Zm2.683,2.013h.488a1.149,1.149,0,0,0,.488-.122.609.609,0,0,0,.3-.244.867.867,0,0,0,.122-.366c0-.122.061-.3.061-.488V24a.867.867,0,0,0-.122-.366.609.609,0,0,0-.3-.244,1.149,1.149,0,0,0-.488-.122h-.488v2.378Zm0-2.988h.488a2.707,2.707,0,0,1,.793.122.948.948,0,0,1,.488.366,2.166,2.166,0,0,1,.244.549,2.734,2.734,0,0,1,.061.732,3.222,3.222,0,0,1-.061.793,1.826,1.826,0,0,1-.244.61.948.948,0,0,1-.488.366,2.389,2.389,0,0,1-.793.122h-1.22v-6.1h2.5v.61h-1.769v1.83Zm3.72.549a9.464,9.464,0,0,1-.061,1.4q-.092.549-.183.915a.888.888,0,0,1-.366.549,2.128,2.128,0,0,1-.549.366l-.3-.488c.122-.122.244-.183.366-.3a1.276,1.276,0,0,0,.244-.366c.061-.183.122-.366.183-.61a4.039,4.039,0,0,0,.061-.915V20.22h2.561v6.1h-.671V20.83h-1.22v2.378Zm5.062-1.22-1.525,4.269H139V20.22h.671v4.269h.061l1.525-4.33h.671v6.1h-.671l-.061-4.269Zm1.586,4.33v-6.1h.671V22.9h.61c.122,0,.183-.061.3-.122.061-.061.183-.122.244-.244a4.208,4.208,0,0,0,.183-.488l.427-1.769h.61l-.427,1.769a2.035,2.035,0,0,1-.3.732,2.817,2.817,0,0,1-.427.427.973.973,0,0,1,.549.427,2.391,2.391,0,0,1,.3.793l.427,1.952h-.671l-.366-1.83a4.2,4.2,0,0,0-.183-.488.609.609,0,0,0-.244-.3c-.122-.061-.183-.122-.3-.122s-.183-.061-.3-.061h-.427v2.744Zm5.977,0-.3-1.342h-1.342l-.244,1.342h-.671l1.281-6.1h.671l1.342,6.1Zm-.976-4.879-.244,1.4-.3,1.4h1.1l-.3-1.464-.244-1.342Zm3.537-1.281a1.341,1.341,0,0,1,1.037.366,1.409,1.409,0,0,1,.3,1.037l-.671.122a2.193,2.193,0,0,0-.122-.671.594.594,0,0,0-.549-.244.867.867,0,0,0-.366.122c-.061.061-.183.122-.183.244-.061.122-.061.183-.122.3v3.72c0,.122.061.183.122.3.061.061.122.183.183.244s.183.061.366.061c.244,0,.427-.061.488-.183a.981.981,0,0,0,.183-.671l.732.122a1.434,1.434,0,0,1-.366,1.037,1.652,1.652,0,0,1-2.073,0,1.491,1.491,0,0,1-.366-1.1V21.927a1.88,1.88,0,0,1,.061-.61l.183-.549a.82.82,0,0,1,.427-.366c.183-.244.427-.244.732-.244Zm4.208,1.83L154,26.257h-.671V20.22H154v4.269h.061l1.525-4.33h.671v6.1h-.671l-.061-4.269Z" transform="translate(-78.5 -19)" fill="#164493" fill-rule="evenodd"/>
        <path id="Path_7721" data-name="Path 7721" d="M79.6,42.96h.427c.061,0,.122,0,.122-.061a.612.612,0,0,0,.61-.366,1.555,1.555,0,0,0,.122-.793,1.615,1.615,0,0,0-.183-.854c-.122-.183-.366-.244-.732-.244H79.6V42.96Zm56.838,2.256H135.4V43.935h-.366l-.793-2.439h0l-.793,2.439h-1.22l1.464-3.72c-.244-.549-.427-1.1-.671-1.708-.244-.549-.427-1.1-.671-1.708h1.22c.122.366.244.732.366,1.037.122.366.244.732.366,1.037h.061l.549-1.952h1.22l-1.4,3.354.732,1.83c.122.3.244.671.366.976h.488v2.134ZM79.6,39.666h.488a3.691,3.691,0,0,1,.915.122,1.328,1.328,0,0,1,.549.427,2.254,2.254,0,0,1,.3.671,3.691,3.691,0,0,1,.122.915,2.524,2.524,0,0,1-.488,1.647,1.75,1.75,0,0,1-1.4.549H78.5V36.922h3.11v1.037H79.6v1.708ZM85.269,44l-.244-1.464H83.684a3.062,3.062,0,0,0-.122.732c-.061.244-.061.488-.122.732h-1.1c.244-1.159.488-2.378.732-3.537s.488-2.378.732-3.537h1.22L86.489,44Zm-.976-5.428a12.211,12.211,0,0,1-.244,1.464c-.061.488-.183.976-.244,1.464h.976l-.488-2.927ZM89.355,44v-3.11H88.075V44h-1.1V36.922h1.1V39.91h1.281V36.922h1.1V44Zm2.622,0v1.342h-.915V43.082l.427-.122a1.391,1.391,0,0,0,.366-.732,4.379,4.379,0,0,0,.122-1.037l.122-4.33h3.171v6.1H95.7v2.317h-.915V43.935H91.978Zm.976-2.805c0,.427-.061.732-.061,1.037a2.057,2.057,0,0,1-.244.732h1.525V37.9H93.015l-.061,3.293Zm7.013-4.269V44h-1.1V37.959h-1.1V40.7a10.808,10.808,0,0,1-.061,1.464,3.794,3.794,0,0,1-.244.976,2.519,2.519,0,0,1-.427.671,2.109,2.109,0,0,1-.732.427l-.427-.793c.183-.122.3-.244.427-.3a.983.983,0,0,0,.244-.427,1.882,1.882,0,0,0,.122-.671c0-.244.061-.549.061-.976V36.922Zm3.537,2.622L102.04,44H101V36.922h1.1v4.513h.061l1.464-4.513h1.1V44h-1.1l-.122-4.452ZM105.639,44V36.922h1.1V39.91h.244a.783.783,0,0,0,.61-.244,1.209,1.209,0,0,0,.366-.793,2.156,2.156,0,0,0,.061-.366c.061-.183.061-.427.122-.61.061-.244.061-.427.122-.61a1.073,1.073,0,0,0,.061-.366h1.037a5.164,5.164,0,0,1-.244,1.037A6.381,6.381,0,0,1,108.871,39a1.821,1.821,0,0,1-.366.854.916.916,0,0,1-.549.427h0a1.218,1.218,0,0,1,.61.488,2.29,2.29,0,0,1,.3.854c.061.427.183.793.244,1.159s.183.793.244,1.159h-1.1c-.061-.366-.122-.671-.183-1.037a6.38,6.38,0,0,0-.244-1.037,1.209,1.209,0,0,0-.366-.793,1.083,1.083,0,0,0-.61-.244h-.3v3.11h-.915Zm8.843-5.123a1.3,1.3,0,0,0-.183-.732.981.981,0,0,0-.671-.183h-.366v1.83h.366a.642.642,0,0,0,.61-.244.917.917,0,0,0,.244-.671Zm.061,2.866a1.173,1.173,0,0,0-.183-.732.76.76,0,0,0-.671-.244h-.427v2.2h.427a.881.881,0,0,0,.427-.122.476.476,0,0,0,.244-.244.867.867,0,0,0,.122-.366,1.342,1.342,0,0,0,.061-.488Zm.244-1.464a1.108,1.108,0,0,1,.671.61,2.9,2.9,0,0,1-.3,2.622,1.8,1.8,0,0,1-1.464.549h-1.464V36.922h1.525a1.7,1.7,0,0,1,1.342.488,2.339,2.339,0,0,1,.244,2.256,1.3,1.3,0,0,1-.549.61Zm4.33,3.72-.3-1.464h-1.281a3.061,3.061,0,0,0-.122.732c-.061.244-.061.488-.122.732h-1.1c.244-1.159.488-2.378.732-3.537s.488-2.378.732-3.537h1.22L120.336,44Zm-.976-5.428a12.212,12.212,0,0,1-.244,1.464c-.061.488-.183.976-.244,1.464h.976l-.488-2.927Zm6.891,3.842-.488-1.342-.427-1.22h-.061v4.086h-1.1V36.922h1.1l.793,2.013.549,1.525h.061l.549-1.586.793-1.952h1.037V44h-1.1V39.91h-.061l-.427,1.281-.488,1.281h-.732ZM128.752,44V36.922h3.171v1.037H129.85V39.91h1.769v1.037H129.85v2.074h2.074v1.037h-3.171Zm10.429,0v-3.11h-1.22V44h-1.1V36.922h1.1V39.91h1.281V36.922h1.1V44Zm4.7,0-.3-1.464h-1.281a3.062,3.062,0,0,0-.122.732c-.061.244-.061.488-.122.732h-1.1c.244-1.159.488-2.378.732-3.537s.488-2.378.732-3.537h1.22L145.1,44Zm-.915-5.428a12.217,12.217,0,0,1-.244,1.464c-.061.488-.183.976-.244,1.464h.976l-.488-2.927Zm4.147-.61h1.159V36.922h-3.354v1.037h1.159V44h1.1V37.959Zm5.855,4.452-.488-1.342-.427-1.22h-.061v4.086h-1.1V36.922h1.1l.793,2.013.549,1.525h.061l.549-1.586.793-1.952h1.037V44h-1.1V39.91h-.061l-.427,1.281-.488,1.281h-.732Zm5.245-1.83.854-3.659H160.1l-1.4,5.489a7.978,7.978,0,0,1-.3.915,1.684,1.684,0,0,1-.366.488.983.983,0,0,1-.427.244,1.189,1.189,0,0,1-.488.061h-.427V43.2h.244a.554.554,0,0,0,.427-.183,1.149,1.149,0,0,0,.244-.549v-.183c0-.061,0-.061.061-.122v-.061l-1.4-5.184h1.1l.854,3.659ZM163.026,44v-3.11h-1.281V44h-1.1V36.922h1.1V39.91h1.281V36.922h1.1V44Zm4.391-5.367a1.781,1.781,0,0,0-.122-.549c-.061-.183-.244-.244-.488-.244a.457.457,0,0,0-.3.061.842.842,0,0,0-.183.244c-.061.061-.061.183-.122.3v3.842a1.149,1.149,0,0,0,.122.488.634.634,0,0,0,.488.244.5.5,0,0,0,.488-.244.906.906,0,0,0,.122-.549v-3.6Zm1.1,3.537a1.936,1.936,0,0,1-.427,1.4,1.747,1.747,0,0,1-1.281.488,1.55,1.55,0,0,1-1.281-.427,2.013,2.013,0,0,1-.427-1.281v-3.6a3.09,3.09,0,0,1,.122-.793,1.908,1.908,0,0,1,.3-.61.888.888,0,0,1,.549-.366,1.674,1.674,0,0,1,.793-.122,2.707,2.707,0,0,1,.793.122,1.1,1.1,0,0,1,.549.366,1.908,1.908,0,0,1,.3.61,3.222,3.222,0,0,1,.061.793v3.415Zm2.683-5.306a2.275,2.275,0,0,1,.732.122,1.44,1.44,0,0,1,.549.366,1.328,1.328,0,0,1,.3.488,2.193,2.193,0,0,1,.122.671l-1.1.3a1.53,1.53,0,0,0-.122-.61.5.5,0,0,0-.488-.244.457.457,0,0,0-.3.061l-.183.183a.457.457,0,0,0-.061.3v4.147c0,.061.061.183.061.244l.183.183a.457.457,0,0,0,.3.061c.427,0,.61-.3.61-.854a1.688,1.688,0,0,0,.549.061c.183,0,.366.061.549.061a2.013,2.013,0,0,1-.427,1.281,1.6,1.6,0,0,1-1.22.488,1.55,1.55,0,0,1-1.281-.427,1.718,1.718,0,0,1-.427-1.281v-3.72a2.968,2.968,0,0,1,.061-.732,1.907,1.907,0,0,1,.3-.61,1.328,1.328,0,0,1,.549-.427,1.991,1.991,0,0,1,.732-.122Zm5,7.135-.3-1.464h-1.281a3.061,3.061,0,0,0-.122.732c-.061.244-.061.488-.122.732h-1.1c.244-1.159.488-2.378.732-3.537s.488-2.378.732-3.537h1.22L177.418,44Zm-.976-5.428a12.211,12.211,0,0,1-.244,1.464c-.061.488-.183.976-.244,1.464h.976l-.488-2.927Zm3.842,4.391h.427c.061,0,.122,0,.122-.061a.612.612,0,0,0,.61-.366,1.555,1.555,0,0,0,.122-.793,1.615,1.615,0,0,0-.183-.854c-.122-.183-.366-.244-.732-.244h-.366V42.96Zm0-3.293h.488a3.691,3.691,0,0,1,.915.122,1.328,1.328,0,0,1,.549.427,2.253,2.253,0,0,1,.3.671,4.037,4.037,0,0,1,.061.915,2.524,2.524,0,0,1-.488,1.647,1.75,1.75,0,0,1-1.4.549h-1.586V36.922h3.11v1.037H179v1.708ZM184.676,44l-.3-1.464H183.09a3.061,3.061,0,0,0-.122.732c-.061.244-.061.488-.122.732h-1.1c.244-1.159.488-2.378.732-3.537s.488-2.378.732-3.537h1.22L185.9,44Zm-.915-5.428a12.208,12.208,0,0,1-.244,1.464c-.061.488-.183.976-.244,1.464h.976l-.488-2.927Zm4.086-.61h1.159V36.922h-3.354v1.037h1.159V44h1.1V37.959Zm5.306-1.037V44h-1.1V37.959h-1.1V40.7a10.808,10.808,0,0,1-.061,1.464,3.8,3.8,0,0,1-.244.976,2.519,2.519,0,0,1-.427.671,2.109,2.109,0,0,1-.732.427l-.427-.793c.183-.122.3-.244.427-.3a.983.983,0,0,0,.244-.427,1.882,1.882,0,0,0,.122-.671c0-.244.061-.549.061-.976V36.922Zm3.6,7.074-.244-1.464h-1.281a3.062,3.062,0,0,0-.122.732c-.061.244-.061.488-.122.732h-1.1c.244-1.159.488-2.378.732-3.537s.488-2.378.732-3.537h1.22L198.032,44Zm-.976-5.428a12.214,12.214,0,0,1-.244,1.464c-.061.488-.183.976-.244,1.464h.976l-.488-2.927Zm4.269-1.647a1.852,1.852,0,0,1,1.4.488,2.529,2.529,0,0,1,.427,1.647,4.71,4.71,0,0,1-.122.915,2.255,2.255,0,0,1-.3.671,1.118,1.118,0,0,1-.61.427,2.037,2.037,0,0,1-.915.183h-.366V44h-1.1V36.922Zm-.488,1.037v2.317h.366a.914.914,0,0,0,.732-.3,1.615,1.615,0,0,0,.183-.854,1.384,1.384,0,0,0-.183-.793.787.787,0,0,0-.671-.3h-.427Zm5.611,1.586L203.7,44h-1.1V36.922h1.1v4.513h.061l1.464-4.513h1.1V44h-1.1l-.061-4.452Z" transform="translate(-78.5 -25.945)" fill="#164493" fill-rule="evenodd"/>
        <path id="Path_7722" data-name="Path 7722" d="M80.574,57.427a.866.866,0,0,1,.549.488,2.083,2.083,0,0,1,.122.915,2.266,2.266,0,0,1-.366,1.4,1.49,1.49,0,0,1-1.22.427H78.5v-6.1h1.281c.549,0,.915.122,1.1.427a1.818,1.818,0,0,1,.3,1.22,3.09,3.09,0,0,1-.122.793,1.157,1.157,0,0,1-.488.427Zm.061,1.342a1.526,1.526,0,0,0-.183-.793c-.122-.183-.366-.244-.732-.244h-.488V60.05h.549a1.149,1.149,0,0,0,.488-.122c.122-.061.183-.183.244-.244a.867.867,0,0,0,.122-.366v-.549Zm-.061-2.622a1.3,1.3,0,0,0-.183-.732.76.76,0,0,0-.671-.244h-.488v1.952h.488a.76.76,0,0,0,.671-.244,1.3,1.3,0,0,0,.183-.732Zm3.781,4.513-.3-1.342H82.708l-.244,1.342h-.671l1.281-6.1h.671l1.342,6.1Zm-.976-4.879-.244,1.464-.3,1.4h1.1l-.244-1.464-.3-1.4ZM86.611,54.5a1.88,1.88,0,0,1,.61.061.983.983,0,0,1,.427.244,1.328,1.328,0,0,1,.3.488,2.707,2.707,0,0,1,.122.793v.366c0,.122-.061.244-.061.427l-.183.366c-.061.122-.183.183-.244.244h0a1.33,1.33,0,0,1,.3.244l.183.366a.774.774,0,0,1,.061.366v.427a2.563,2.563,0,0,1-.3,1.342,1.34,1.34,0,0,1-1.1.488,1.689,1.689,0,0,1-.549-.061.983.983,0,0,1-.427-.244,1.094,1.094,0,0,1-.3-.427,1.88,1.88,0,0,1-.061-.61l.671-.122a.981.981,0,0,0,.183.671.745.745,0,0,0,.549.183c.122,0,.183,0,.244-.061s.183-.122.244-.183A.516.516,0,0,0,87.4,59.5a1.7,1.7,0,0,0,.061-.61,1.038,1.038,0,0,0-.061-.427.867.867,0,0,0-.122-.366.842.842,0,0,0-.183-.244.457.457,0,0,0-.3-.061h-.366v-.61h.427a.457.457,0,0,0,.3-.061c.061-.061.183-.122.183-.244.061-.122.061-.244.122-.366,0-.122.061-.3.061-.427a1.189,1.189,0,0,0-.061-.488c-.061-.122-.061-.244-.183-.3a.317.317,0,0,0-.244-.122,2.641,2.641,0,0,0-.3-.061.594.594,0,0,0-.549.244,1.03,1.03,0,0,0-.183.61l-.671-.122a1.256,1.256,0,0,1,.427-1.037,1.206,1.206,0,0,1,.854-.3Zm4.513,1.83L89.6,60.6h-.671V54.5H89.6v4.33h.061l1.525-4.33h.671v6.1h-.671l-.061-4.269Zm2.866-1.769a3.09,3.09,0,0,1,.793.122.948.948,0,0,1,.488.366,2.166,2.166,0,0,1,.244.549,3.222,3.222,0,0,1,.061.793,2.97,2.97,0,0,1-.061.732,1.826,1.826,0,0,1-.244.61.948.948,0,0,1-.488.366,1.554,1.554,0,0,1-.793.122h-.549V60.66h-.671v-6.1Zm-.549,2.988h.488a1.149,1.149,0,0,0,.488-.122.609.609,0,0,0,.3-.244.867.867,0,0,0,.122-.366v-.427a1.343,1.343,0,0,0-.061-.488.654.654,0,0,0-.122-.366.609.609,0,0,0-.3-.244,1.149,1.149,0,0,0-.488-.122h-.427v2.378Zm3.72.061a9.465,9.465,0,0,1-.061,1.4q-.091.549-.183.915a.888.888,0,0,1-.366.549,2.128,2.128,0,0,1-.549.366l-.3-.488c.122-.122.244-.183.366-.3a1.276,1.276,0,0,0,.244-.366c.061-.183.122-.366.183-.61a4.038,4.038,0,0,0,.061-.915v-3.6h2.561v6.1h-.671V55.171h-1.22V57.61Zm5-1.281L100.638,60.6h-.671V54.5h.671v4.33h.061l1.525-4.33h.671v6.1h-.671l-.061-4.269Zm2.317-1.159V60.66h-.671v-6.1h2.5v.671h-1.83Zm4.635,1.159L107.59,60.6h-.671V54.5h.671v4.33h.061l1.525-4.33h.671v6.1h-.671l-.061-4.269Z" transform="translate(-78.5 -32.85)" fill="#164493" fill-rule="evenodd"/>
      </g>
    </g>
  </g>
</svg>