<svg xmlns="http://www.w3.org/2000/svg" version="1.1" xlink="http://www.w3.org/1999/xlink" xmlns:svgjs="http://svgjs.com/svgjs" width="300" height="66.13594611145132"><defs id="SvgjsDefs1113"/><g id="SvgjsG1114" transform="scale(1.0206164523372117)" opacity="1"><g id="SvgjsG1115" class="0GXMiJSNSb" transform="translate(0, 0) scale(2.4923076923076923)" light-content="false" fill="#0f3bb3"><path d="M13 0C5.826 0 0 5.826 0 13s5.826 13 13 13 13-5.826 13-13S20.174 0 13 0zm0 1c6.633 0 12 5.367 12 12s-5.367 12-12 12S1 19.633 1 13 6.367 1 13 1zm0 5c-.231 0-.485.117-.773.43-.29.312-.583.81-.832 1.449-.234.597-.423 1.32-.565 2.121h4.34c-.142-.8-.331-1.524-.565-2.121-.249-.638-.543-1.137-.832-1.45C13.485 6.118 13.231 6 13 6zm-1.9.266A6.993 6.993 0 0 0 6.68 10h3.127c.152-.926.375-1.766.656-2.484a6.52 6.52 0 0 1 .637-1.25zm3.8 0c.24.36.452.776.637 1.25.28.718.504 1.558.656 2.484h3.127a6.993 6.993 0 0 0-4.42-3.734zM6.293 11A7.017 7.017 0 0 0 6 13c0 .696.105 1.366.293 2h3.394a19.076 19.076 0 0 1-.115-2c0-.696.048-1.357.116-2H6.293zm4.402 0c-.071.638-.123 1.3-.123 2s.052 1.36.123 2h4.61c.071-.64.123-1.3.123-2s-.052-1.362-.123-2h-4.61zm5.617 0c.068.643.116 1.304.116 2s-.048 1.357-.116 2h3.395A7.003 7.003 0 0 0 20 13a7.02 7.02 0 0 0-.293-2h-3.395zm-9.63 5a6.992 6.992 0 0 0 4.416 3.732 6.566 6.566 0 0 1-.635-1.246c-.28-.718-.504-1.56-.656-2.486H6.682zm4.15 0c.141.8.33 1.527.563 2.123.249.639.543 1.136.832 1.45.288.312.542.427.773.427.231 0 .485-.115.773-.428.29-.313.583-.81.832-1.449.233-.596.422-1.323.563-2.123h-4.336zm5.361 0a12.462 12.462 0 0 1-.656 2.486 6.566 6.566 0 0 1-.635 1.246A6.992 6.992 0 0 0 19.318 16h-3.125z" overflow="visible" color="#000" style="text-indent: 0; text-decoration-line: none; text-transform: none; block-progression: tb"/></g><g id="SvgjsG1116" class="text" transform="translate(83.73, 31.874999999999996) scale(1)" light-content="false" fill="#3d3d3d"><path d="M7.1 0L8.83 -4.8L18.43 -4.8L20.16 0L27.65 0L17.47 -26.88L9.79 -26.88L-0.38 0ZM10.56 -9.79L13.63 -18.82L16.7 -9.79Z M40.51 -15.17L41.86 -15.17C42.24 -15.17 42.56 -15.04 42.82 -14.78C43.07 -14.53 43.2 -14.21 43.2 -13.82L43.2 0L49.92 0L49.92 -14.98C49.92 -16.72 49.4 -18.11 48.35 -19.16C47.3 -20.21 45.9 -20.74 44.16 -20.74L42.43 -20.74C41.56 -20.74 40.49 -20.55 39.23 -20.18C37.96 -19.81 36.72 -19.23 35.52 -18.43L35.14 -20.35L29.18 -20.35L29.18 0L35.9 0L35.9 -14.4C37.62 -14.91 39.16 -15.17 40.51 -15.17Z M58.75 6.91C60.77 6.91 62.37 6.39 63.55 5.36C64.73 4.32 65.69 2.79 66.43 0.77L74.11 -20.35L67.01 -20.35L62.98 -7.3L58.18 -20.35L51.07 -20.35L58.94 -1.54C59.35 -0.56 59.41 0.19 59.12 0.73C58.82 1.27 58.19 1.54 57.22 1.54L53.76 1.54L53.76 6.53C55.73 6.78 57.4 6.91 58.75 6.91Z M80.45 0L82.18 -4.8L91.78 -4.8L93.5 0L100.99 0L90.82 -26.88L83.14 -26.88L72.96 0ZM83.9 -9.79L86.98 -18.82L90.05 -9.79Z M120.58 -0.38L120.58 -5.38C115.97 -4.99 112.51 -4.8 110.21 -4.8C109.82 -4.8 109.5 -4.93 109.25 -5.18C108.99 -5.44 108.86 -5.76 108.86 -6.14L108.86 -13.63C108.86 -14.66 109.38 -15.17 110.4 -15.17L120.58 -15.17L120.58 -20.35L108.29 -20.35C106.37 -20.35 104.86 -19.81 103.78 -18.72C102.69 -17.63 102.14 -16.13 102.14 -14.21L102.14 -5.38C102.14 -3.64 102.67 -2.24 103.72 -1.19C104.77 -0.14 106.16 0.38 107.9 0.38C111.56 0.38 115.79 0.13 120.58 -0.38Z M141.7 -0.38L141.7 -5.38C137.09 -4.99 133.63 -4.8 131.33 -4.8C130.94 -4.8 130.62 -4.93 130.37 -5.18C130.11 -5.44 129.98 -5.76 129.98 -6.14L129.98 -13.63C129.98 -14.66 130.5 -15.17 131.52 -15.17L141.7 -15.17L141.7 -20.35L129.41 -20.35C127.49 -20.35 125.98 -19.81 124.9 -18.72C123.81 -17.63 123.26 -16.13 123.26 -14.21L123.26 -5.38C123.26 -3.64 123.79 -2.24 124.84 -1.19C125.89 -0.14 127.28 0.38 129.02 0.38C132.68 0.38 136.91 0.13 141.7 -0.38Z M152.64 -15.94L156.1 -15.94C157.12 -15.94 157.63 -15.42 157.63 -14.4L157.63 -12.29L151.1 -12.29L151.1 -14.4C151.1 -15.42 151.62 -15.94 152.64 -15.94ZM163.58 -0.38L163.58 -5.18C158.69 -4.8 154.98 -4.61 152.45 -4.61C152.06 -4.61 151.74 -4.74 151.49 -4.99C151.23 -5.25 151.1 -5.57 151.1 -5.95L151.1 -7.49L164.35 -7.49L164.35 -14.59C164.35 -16.51 163.81 -18.02 162.72 -19.1C161.63 -20.19 160.13 -20.74 158.21 -20.74L150.53 -20.74C148.61 -20.74 147.1 -20.19 146.02 -19.1C144.93 -18.02 144.38 -16.51 144.38 -14.59L144.38 -5.38C144.38 -3.64 144.91 -2.24 145.96 -1.19C147.01 -0.14 148.4 0.38 150.14 0.38C154.16 0.38 158.64 0.13 163.58 -0.38Z M167.04 -5.38L167.04 -0.38C172.24 0.13 177.1 0.38 181.63 0.38C183.37 0.38 184.77 -0.14 185.82 -1.19C186.87 -2.24 187.39 -3.64 187.39 -5.38L187.39 -6.91C187.39 -8.65 186.87 -10.05 185.82 -11.1C184.77 -12.15 183.37 -12.67 181.63 -12.67L174.72 -12.67C174.34 -12.67 174.02 -12.8 173.76 -13.06C173.5 -13.31 173.38 -13.63 173.38 -14.02C173.38 -14.4 173.5 -14.72 173.76 -14.98C174.02 -15.23 174.34 -15.36 174.72 -15.36L185.47 -15.36L185.47 -20.35L172.42 -20.35C170.68 -20.35 169.28 -19.83 168.23 -18.78C167.18 -17.73 166.66 -16.33 166.66 -14.59L166.66 -13.25C166.66 -11.51 167.18 -10.11 168.23 -9.06C169.28 -8.01 170.68 -7.49 172.42 -7.49L180.67 -7.49L180.67 -6.14C180.67 -5.76 180.54 -5.44 180.29 -5.18C180.03 -4.93 179.71 -4.8 179.33 -4.8C176.33 -4.8 172.24 -4.99 167.04 -5.38Z M189.31 -5.38L189.31 -0.38C194.51 0.13 199.37 0.38 203.9 0.38C205.64 0.38 207.04 -0.14 208.09 -1.19C209.14 -2.24 209.66 -3.64 209.66 -5.38L209.66 -6.91C209.66 -8.65 209.14 -10.05 208.09 -11.1C207.04 -12.15 205.64 -12.67 203.9 -12.67L196.99 -12.67C196.61 -12.67 196.29 -12.8 196.03 -13.06C195.78 -13.31 195.65 -13.63 195.65 -14.02C195.65 -14.4 195.78 -14.72 196.03 -14.98C196.29 -15.23 196.61 -15.36 196.99 -15.36L207.74 -15.36L207.74 -20.35L194.69 -20.35C192.95 -20.35 191.55 -19.83 190.5 -18.78C189.45 -17.73 188.93 -16.33 188.93 -14.59L188.93 -13.25C188.93 -11.51 189.45 -10.11 190.5 -9.06C191.55 -8.01 192.95 -7.49 194.69 -7.49L202.94 -7.49L202.94 -6.14C202.94 -5.76 202.82 -5.44 202.56 -5.18C202.3 -4.93 201.98 -4.8 201.6 -4.8C198.6 -4.8 194.51 -4.99 189.31 -5.38Z"/></g><g id="SvgjsG1117" class="text" transform="translate(82.08, 56.565) scale(1)" light-content="false" fill="#3d3d3d"><path d="M7.11 -0.72L7.11 0.18C7.11 0.36 7.05 0.51 6.93 0.63C6.81 0.75 6.66 0.81 6.48 0.81C5.29 0.81 3.55 0.72 1.26 0.54L1.26 2.88C3.58 3.12 5.68 3.24 7.56 3.24C8.38 3.24 9.03 2.99 9.52 2.5C10.01 2.01 10.26 1.36 10.26 0.54L10.26 -9.54L3.6 -9.54C2.7 -9.54 2 -9.28 1.49 -8.77C0.98 -8.26 0.72 -7.56 0.72 -6.66L0.72 -3.06C0.72 -2.24 0.97 -1.59 1.46 -1.1C1.95 -0.61 2.6 -0.36 3.42 -0.36L4.05 -0.36C4.93 -0.36 5.95 -0.48 7.11 -0.72ZM4.95 -2.79L4.5 -2.79C4.32 -2.79 4.17 -2.85 4.05 -2.97C3.93 -3.09 3.87 -3.24 3.87 -3.42L3.87 -6.39C3.87 -6.87 4.11 -7.11 4.59 -7.11L7.11 -7.11L7.11 -2.97C6.43 -2.85 5.71 -2.79 4.95 -2.79Z M16.92 0L16.92 -2.34L15.84 -2.34C15.66 -2.34 15.51 -2.4 15.39 -2.52C15.27 -2.64 15.21 -2.79 15.21 -2.97L15.21 -12.6L12.06 -12.6L12.06 -2.52C12.06 -1.7 12.31 -1.05 12.8 -0.56C13.29 -0.07 13.9 0.18 14.63 0.18C15.35 0.18 16.12 0.12 16.92 0Z M27.9 -2.7L27.9 -6.84C27.9 -7.74 27.64 -8.44 27.14 -8.96C26.63 -9.46 25.92 -9.72 25.02 -9.72L20.88 -9.72C19.98 -9.72 19.28 -9.46 18.77 -8.96C18.26 -8.44 18 -7.74 18 -6.84L18 -2.7C18 -1.8 18.25 -1.09 18.77 -0.59C19.28 -0.08 19.98 0.18 20.88 0.18L25.02 0.18C25.92 0.18 26.62 -0.08 27.14 -0.59C27.64 -1.1 27.9 -1.8 27.9 -2.7ZM24.75 -6.57L24.75 -2.97C24.75 -2.49 24.51 -2.25 24.03 -2.25L21.87 -2.25C21.39 -2.25 21.15 -2.49 21.15 -2.97L21.15 -6.57C21.15 -7.05 21.39 -7.29 21.87 -7.29L24.03 -7.29C24.51 -7.29 24.75 -7.05 24.75 -6.57Z M35.91 -6.66L35.91 -3.15C35.91 -2.67 35.67 -2.43 35.19 -2.43L32.67 -2.43L32.67 -7.11C32.87 -7.13 33.16 -7.17 33.53 -7.22C33.89 -7.27 34.33 -7.29 34.83 -7.29L35.28 -7.29C35.46 -7.29 35.61 -7.23 35.73 -7.11C35.85 -6.99 35.91 -6.84 35.91 -6.66ZM32.67 -9.36L32.67 -12.6L29.52 -12.6L29.52 0L36.18 0C37.08 0 37.78 -0.26 38.3 -0.77C38.8 -1.28 39.06 -1.98 39.06 -2.88L39.06 -7.02C39.06 -7.84 38.81 -8.49 38.32 -8.98C37.83 -9.47 37.18 -9.72 36.36 -9.72L35.73 -9.72C34.85 -9.72 33.83 -9.6 32.67 -9.36Z M44.46 -2.34L44.01 -2.34C43.83 -2.34 43.68 -2.4 43.56 -2.52C43.44 -2.64 43.38 -2.79 43.38 -2.97L43.38 -3.15C43.38 -3.33 43.44 -3.48 43.56 -3.6C43.68 -3.72 43.83 -3.78 44.01 -3.78L46.62 -3.78L46.62 -2.7C45.82 -2.46 45.1 -2.34 44.46 -2.34ZM41.13 -9.36L41.13 -7.11C41.71 -7.15 42.46 -7.2 43.41 -7.27C44.35 -7.34 45.21 -7.38 45.99 -7.38C46.17 -7.38 46.32 -7.32 46.44 -7.2C46.56 -7.08 46.62 -6.93 46.62 -6.75L46.62 -6.03L42.93 -6.03C42.11 -6.03 41.46 -5.78 40.97 -5.29C40.48 -4.8 40.23 -4.15 40.23 -3.33L40.23 -2.52C40.23 -1.7 40.48 -1.05 40.97 -0.56C41.46 -0.07 42.11 0.18 42.93 0.18L43.56 0.18C43.97 0.18 44.47 0.09 45.06 -0.08C45.66 -0.26 46.24 -0.53 46.8 -0.9L46.98 0L49.77 0L49.77 -7.02C49.77 -7.84 49.52 -8.49 49.03 -8.98C48.54 -9.47 47.89 -9.72 47.07 -9.72C45.31 -9.72 43.33 -9.6 41.13 -9.36Z M56.25 0L56.25 -2.34L55.17 -2.34C54.99 -2.34 54.84 -2.4 54.72 -2.52C54.6 -2.64 54.54 -2.79 54.54 -2.97L54.54 -12.6L51.39 -12.6L51.39 -2.52C51.39 -1.7 51.64 -1.05 52.13 -0.56C52.62 -0.07 53.23 0.18 53.96 0.18C54.68 0.18 55.45 0.12 56.25 0Z M71.37 -0.18L71.37 -2.52C69.21 -2.34 67.59 -2.25 66.51 -2.25C66.33 -2.25 66.18 -2.31 66.06 -2.43C65.94 -2.55 65.88 -2.7 65.88 -2.88L65.88 -6.39C65.88 -6.87 66.12 -7.11 66.6 -7.11L71.37 -7.11L71.37 -9.54L65.61 -9.54C64.71 -9.54 64.01 -9.28 63.5 -8.77C62.99 -8.26 62.73 -7.56 62.73 -6.66L62.73 -2.52C62.73 -1.7 62.98 -1.05 63.47 -0.56C63.96 -0.07 64.61 0.18 65.43 0.18C67.15 0.18 69.13 0.06 71.37 -0.18Z M82.53 -2.7L82.53 -6.84C82.53 -7.74 82.27 -8.44 81.77 -8.96C81.26 -9.46 80.55 -9.72 79.65 -9.72L75.51 -9.72C74.61 -9.72 73.91 -9.46 73.4 -8.96C72.89 -8.44 72.63 -7.74 72.63 -6.84L72.63 -2.7C72.63 -1.8 72.88 -1.09 73.4 -0.59C73.91 -0.08 74.61 0.18 75.51 0.18L79.65 0.18C80.55 0.18 81.25 -0.08 81.77 -0.59C82.27 -1.1 82.53 -1.8 82.53 -2.7ZM79.38 -6.57L79.38 -2.97C79.38 -2.49 79.14 -2.25 78.66 -2.25L76.5 -2.25C76.02 -2.25 75.78 -2.49 75.78 -2.97L75.78 -6.57C75.78 -7.05 76.02 -7.29 76.5 -7.29L78.66 -7.29C79.14 -7.29 79.38 -7.05 79.38 -6.57Z M90.54 -9.72L90.36 -9.72C89.95 -9.72 89.45 -9.63 88.86 -9.46C88.26 -9.28 87.68 -9.01 87.12 -8.64L86.94 -9.54L84.15 -9.54L84.15 0L87.3 0L87.3 -6.75C88.14 -6.99 88.83 -7.11 89.37 -7.11L89.46 -7.11C89.64 -7.11 89.79 -7.05 89.91 -6.93C90.03 -6.81 90.09 -6.66 90.09 -6.48L90.09 0L93.24 0L93.24 -6.75C94.08 -6.99 94.77 -7.11 95.31 -7.11L95.4 -7.11C95.58 -7.11 95.73 -7.05 95.85 -6.93C95.97 -6.81 96.03 -6.66 96.03 -6.48L96.03 0L99.18 0L99.18 -7.02C99.18 -7.84 98.93 -8.49 98.44 -8.98C97.95 -9.47 97.3 -9.72 96.48 -9.72L96.3 -9.72C95.8 -9.72 95.22 -9.63 94.58 -9.46C93.94 -9.28 93.34 -9.01 92.79 -8.64C92.26 -9.36 91.51 -9.72 90.54 -9.72Z M107.19 -9.72L107.01 -9.72C106.6 -9.72 106.1 -9.63 105.51 -9.46C104.91 -9.28 104.33 -9.01 103.77 -8.64L103.59 -9.54L100.8 -9.54L100.8 0L103.95 0L103.95 -6.75C104.79 -6.99 105.48 -7.11 106.02 -7.11L106.11 -7.11C106.29 -7.11 106.44 -7.05 106.56 -6.93C106.68 -6.81 106.74 -6.66 106.74 -6.48L106.74 0L109.89 0L109.89 -6.75C110.73 -6.99 111.42 -7.11 111.96 -7.11L112.05 -7.11C112.23 -7.11 112.38 -7.05 112.5 -6.93C112.62 -6.81 112.68 -6.66 112.68 -6.48L112.68 0L115.83 0L115.83 -7.02C115.83 -7.84 115.58 -8.49 115.09 -8.98C114.6 -9.47 113.95 -9.72 113.13 -9.72L112.95 -9.72C112.45 -9.72 111.87 -9.63 111.23 -9.46C110.59 -9.28 109.99 -9.01 109.44 -8.64C108.91 -9.36 108.16 -9.72 107.19 -9.72Z M121.86 -2.43L121.23 -2.43C121.05 -2.43 120.9 -2.49 120.78 -2.61C120.66 -2.73 120.6 -2.88 120.6 -3.06L120.6 -9.54L117.45 -9.54L117.45 -2.52C117.45 -1.7 117.7 -1.05 118.19 -0.56C118.68 -0.07 119.33 0.18 120.15 0.18L120.96 0.18C121.37 0.18 121.87 0.09 122.46 -0.08C123.06 -0.26 123.64 -0.53 124.2 -0.9L124.38 0L127.17 0L127.17 -9.54L124.02 -9.54L124.02 -2.79C123.22 -2.55 122.5 -2.43 121.86 -2.43Z M134.28 -7.11L134.91 -7.11C135.09 -7.11 135.24 -7.05 135.36 -6.93C135.48 -6.81 135.54 -6.66 135.54 -6.48L135.54 0L138.69 0L138.69 -7.02C138.69 -7.84 138.44 -8.49 137.95 -8.98C137.46 -9.47 136.81 -9.72 135.99 -9.72L135.18 -9.72C134.77 -9.72 134.27 -9.63 133.68 -9.46C133.08 -9.28 132.5 -9.01 131.94 -8.64L131.76 -9.54L128.97 -9.54L128.97 0L132.12 0L132.12 -6.75C132.92 -6.99 133.64 -7.11 134.28 -7.11Z M144.27 -9.18L139.77 -9.18L139.77 -6.75L141.12 -6.75L141.12 0L144.27 0ZM141.12 -12.78L141.12 -10.26L144.27 -10.26L144.27 -12.78Z M154.53 -0.18L154.53 -2.52C152.37 -2.34 150.75 -2.25 149.67 -2.25C149.49 -2.25 149.34 -2.31 149.22 -2.43C149.1 -2.55 149.04 -2.7 149.04 -2.88L149.04 -6.39C149.04 -6.87 149.28 -7.11 149.76 -7.11L154.53 -7.11L154.53 -9.54L148.77 -9.54C147.87 -9.54 147.17 -9.28 146.66 -8.77C146.15 -8.26 145.89 -7.56 145.89 -6.66L145.89 -2.52C145.89 -1.7 146.14 -1.05 146.63 -0.56C147.12 -0.07 147.77 0.18 148.59 0.18C150.31 0.18 152.29 0.06 154.53 -0.18Z M159.75 -2.34L159.3 -2.34C159.12 -2.34 158.97 -2.4 158.85 -2.52C158.73 -2.64 158.67 -2.79 158.67 -2.97L158.67 -3.15C158.67 -3.33 158.73 -3.48 158.85 -3.6C158.97 -3.72 159.12 -3.78 159.3 -3.78L161.91 -3.78L161.91 -2.7C161.11 -2.46 160.39 -2.34 159.75 -2.34ZM156.42 -9.36L156.42 -7.11C157 -7.15 157.75 -7.2 158.7 -7.27C159.64 -7.34 160.5 -7.38 161.28 -7.38C161.46 -7.38 161.61 -7.32 161.73 -7.2C161.85 -7.08 161.91 -6.93 161.91 -6.75L161.91 -6.03L158.22 -6.03C157.4 -6.03 156.75 -5.78 156.26 -5.29C155.77 -4.8 155.52 -4.15 155.52 -3.33L155.52 -2.52C155.52 -1.7 155.77 -1.05 156.26 -0.56C156.75 -0.07 157.4 0.18 158.22 0.18L158.85 0.18C159.26 0.18 159.76 0.09 160.35 -0.08C160.95 -0.26 161.53 -0.53 162.09 -0.9L162.27 0L165.06 0L165.06 -7.02C165.06 -7.84 164.81 -8.49 164.32 -8.98C163.83 -9.47 163.18 -9.72 162.36 -9.72C160.6 -9.72 158.62 -9.6 156.42 -9.36Z M173.34 0L173.34 -2.34L171 -2.34C170.82 -2.34 170.67 -2.4 170.55 -2.52C170.43 -2.64 170.37 -2.79 170.37 -2.97L170.37 -7.11L172.62 -7.11L172.62 -9.54L170.37 -9.54L170.37 -11.7L167.58 -11.7L167.22 -9.54L166.14 -9.54L166.14 -7.11L167.22 -7.11L167.22 -2.52C167.22 -1.7 167.47 -1.05 167.96 -0.56C168.45 -0.07 169.1 0.18 169.92 0.18C171.04 0.18 172.18 0.12 173.34 0Z M178.2 -9.18L173.7 -9.18L173.7 -6.75L175.05 -6.75L175.05 0L178.2 0ZM175.05 -12.78L175.05 -10.26L178.2 -10.26L178.2 -12.78Z M189.72 -2.7L189.72 -6.84C189.72 -7.74 189.46 -8.44 188.96 -8.96C188.45 -9.46 187.74 -9.72 186.84 -9.72L182.7 -9.72C181.8 -9.72 181.1 -9.46 180.59 -8.96C180.08 -8.44 179.82 -7.74 179.82 -6.84L179.82 -2.7C179.82 -1.8 180.07 -1.09 180.59 -0.59C181.1 -0.08 181.8 0.18 182.7 0.18L186.84 0.18C187.74 0.18 188.44 -0.08 188.96 -0.59C189.46 -1.1 189.72 -1.8 189.72 -2.7ZM186.57 -6.57L186.57 -2.97C186.57 -2.49 186.33 -2.25 185.85 -2.25L183.69 -2.25C183.21 -2.25 182.97 -2.49 182.97 -2.97L182.97 -6.57C182.97 -7.05 183.21 -7.29 183.69 -7.29L185.85 -7.29C186.33 -7.29 186.57 -7.05 186.57 -6.57Z M196.65 -7.11L197.28 -7.11C197.46 -7.11 197.61 -7.05 197.73 -6.93C197.85 -6.81 197.91 -6.66 197.91 -6.48L197.91 0L201.06 0L201.06 -7.02C201.06 -7.84 200.81 -8.49 200.32 -8.98C199.83 -9.47 199.18 -9.72 198.36 -9.72L197.55 -9.72C197.14 -9.72 196.64 -9.63 196.05 -9.46C195.45 -9.28 194.87 -9.01 194.31 -8.64L194.13 -9.54L191.34 -9.54L191.34 0L194.49 0L194.49 -6.75C195.29 -6.99 196.01 -7.11 196.65 -7.11Z M202.32 -2.52L202.32 -0.18C204.76 0.06 207.04 0.18 209.16 0.18C209.98 0.18 210.63 -0.07 211.12 -0.56C211.61 -1.05 211.86 -1.7 211.86 -2.52L211.86 -3.24C211.86 -4.06 211.61 -4.71 211.12 -5.2C210.63 -5.69 209.98 -5.94 209.16 -5.94L205.92 -5.94C205.74 -5.94 205.59 -6 205.47 -6.12C205.35 -6.24 205.29 -6.39 205.29 -6.57C205.29 -6.75 205.35 -6.9 205.47 -7.02C205.59 -7.14 205.74 -7.2 205.92 -7.2L210.96 -7.2L210.96 -9.54L204.84 -9.54C204.02 -9.54 203.37 -9.29 202.88 -8.8C202.39 -8.31 202.14 -7.66 202.14 -6.84L202.14 -6.21C202.14 -5.39 202.39 -4.74 202.88 -4.25C203.37 -3.76 204.02 -3.51 204.84 -3.51L208.71 -3.51L208.71 -2.88C208.71 -2.7 208.65 -2.55 208.53 -2.43C208.41 -2.31 208.26 -2.25 208.08 -2.25C206.68 -2.25 204.76 -2.34 202.32 -2.52Z"/></g></g></svg>